# File created by Blade
# Date/Time:  Fri Jan 16 17:45:47 2015
#---------------------------------------------------------
:version 1.10
:name HOM
:units
  mass 1.0
  length 1.000000
  angle deg
:documentation
     Acclaim Skeleton File
:root
   axis xyz
   order TX TY TZ RX RY RZ
   position 0.000000 0.000000 0.000000
   orientation 0 0 0
:bonedata
   begin
      id 1
      name Spine_dum
      direction 0.000000 1.000000 0.000000
      length 7.170412
      axis 0.0 0.0 0.0 xyz
   end
   begin
      id 2
      name LeftUpLeg_dum
      direction 1.000000 0.000000 0.000000
      length 4.318350
      axis 0.0 0.0 0.0 xyz
   end
   begin
      id 3
      name RightUpLeg_dum
      direction -1.000000 0.000000 0.000000
      length 4.318350
      axis 0.0 0.0 0.0 xyz
   end
   begin
      id 4
      name Spine
      direction 0.000000 1.000000 0.000000
      length 0.000000
      axis 0.0 0.0 0.0 xyz
      dof rx ry rz
   end
   begin
      id 5
      name Spine_dum1
      direction 0.000000 1.000000 0.000000
      length 14.276153
      axis 0.0 0.0 0.0 xyz
   end
   begin
      id 6
      name Spine_dum2
      direction 0.000000 1.000000 0.000000
      length 10.718243
      axis 0.0 0.0 0.0 xyz
   end
   begin
      id 7
      name Spine_dum3
      direction 0.000000 1.000000 0.000000
      length 10.718243
      axis 0.0 0.0 0.0 xyz
   end
   begin
      id 8
      name Head
      direction 0.000000 1.000000 0.000000
      length 4.527550
      axis 0.0 0.0 0.0 xyz
      dof rx ry rz
   end
   begin
      id 9
      name LeftShoulder
      direction 1.000000 0.000000 0.000000
      length 7.058872
      axis 0.0 0.0 -90.0 xyz
      dof rx ry rz
   end
   begin
      id 10
      name LeftArm
      direction 1.000000 0.000000 0.000000
      length 10.955525
      axis 0.0 0.0 -90.0 xyz
      dof rx ry rz
   end
   begin
      id 11
      name LeftForeArm
      direction 1.000000 0.000000 0.000000
      length 8.193716
      axis 0.0 0.0 -90.0 xyz
      dof ry rz rx
   end
   begin
      id 12
      name LeftHand
      direction 0.000000 0.000000 0.000000
      length 0.000000
      axis 0.0 0.0 -90.0 xyz
      dof rx ry rz
   end
   begin
      id 13
      name LeftHand_dum1
      direction 0.000000 0.000000 0.000000
      length 0.000000
      axis 0.0 0.0 -90.0 xyz
   end
   begin
      id 14
      name LeftHand_dum2
      direction 1.000000 0.000000 0.000000
      length 3.937000
      axis 0.0 0.0 -90.0 xyz
   end
   begin
      id 15
      name LeftHandThumb1
      direction 0.000000 0.000000 1.000000
      length 3.937000
      axis 0.0 0.0 -90.0 xyz
      dof rx rz ry
   end
   begin
      id 16
      name RightShoulder
      direction -1.000000 0.000000 0.000000
      length 7.058872
      axis 0.0 0.0 90.0 xyz
      dof rx ry rz
   end
   begin
      id 17
      name RightArm
      direction -1.000000 0.000000 0.000000
      length 10.955525
      axis 0.0 0.0 90.0 xyz
      dof rx ry rz
   end
   begin
      id 18
      name RightForeArm
      direction -1.000000 0.000000 0.000000
      length 8.193716
      axis 0.0 0.0 90.0 xyz
      dof ry rz rx
   end
   begin
      id 19
      name RightHand
      direction 0.000000 0.000000 0.000000
      length 0.000000
      axis 0.0 0.0 90.0 xyz
      dof rx ry rz
   end
   begin
      id 20
      name RightHand_dum1
      direction 0.000000 0.000000 0.000000
      length 0.000000
      axis 0.0 0.0 90.0 xyz
   end
   begin
      id 21
      name RightHand_dum2
      direction -1.000000 0.000000 0.000000
      length 3.937000
      axis 0.0 0.0 90.0 xyz
   end
   begin
      id 22
      name RightHandThumb1
      direction 0.000000 0.000000 1.000000
      length 3.937000
      axis 0.0 0.0 90.0 xyz
      dof rx rz ry
   end
   begin
      id 23
      name LeftUpLeg
      direction 0.000000 -1.000000 0.000000
      length 17.323638
      axis 0.0 0.0 0.0 xyz
      dof rx ry rz
   end
   begin
      id 24
      name LeftLeg
      direction 0.000000 -1.000000 0.000000
      length 16.270368
      axis 0.0 0.0 0.0 xyz
      dof rx ry rz
   end
   begin
      id 25
      name LeftFoot
      direction 0.000000 -0.258819 0.965926
      length 4.922846
      axis 15.0 0.0 0.0 xyz
      dof rx ry rz
   end
   begin
      id 26
      name LeftToeBase
      direction 0.000000 0.000000 1.000000
      length 2.952750
      axis 0.0 0.0 0.0 xyz
      dof rx ry rz
   end
   begin
      id 27
      name RightUpLeg
      direction 0.000000 -1.000000 0.000000
      length 17.323638
      axis 0.0 0.0 0.0 xyz
      dof rx ry rz
   end
   begin
      id 28
      name RightLeg
      direction 0.000000 -1.000000 0.000000
      length 16.270368
      axis 0.0 0.0 0.0 xyz
      dof rx ry rz
   end
   begin
      id 29
      name RightFoot
      direction 0.000000 -0.258819 0.965926
      length 4.922846
      axis 15.0 0.0 0.0 xyz
      dof rx ry rz
   end
   begin
      id 30
      name RightToeBase
      direction 0.000000 0.000000 1.000000
      length 2.952750
      axis 0.0 0.0 0.0 xyz
      dof rx ry rz
   end
:hierarchy
   begin
      root Spine_dum LeftUpLeg_dum RightUpLeg_dum
      Spine_dum Spine
      LeftUpLeg_dum LeftUpLeg
      RightUpLeg_dum RightUpLeg
      Spine Spine_dum1 Spine_dum2 Spine_dum3
      Spine_dum1 Head
      Spine_dum2 LeftShoulder
      Spine_dum3 RightShoulder
      LeftShoulder LeftArm
      LeftArm LeftForeArm
      LeftForeArm LeftHand
      LeftHand LeftHand_dum1 LeftHand_dum2
      LeftHand_dum1 LeftHandThumb1
      RightShoulder RightArm
      RightArm RightForeArm
      RightForeArm RightHand
      RightHand RightHand_dum1 RightHand_dum2
      RightHand_dum1 RightHandThumb1
      LeftUpLeg LeftLeg
      LeftLeg LeftFoot
      LeftFoot LeftToeBase
      RightUpLeg RightLeg
      RightLeg RightFoot
      RightFoot RightToeBase
   end

# File created by Blade
# Date/Time:  Fri Jan 16 17:45:28 2015
# Frame Rate: 120.000 fps
#------------------------------------------------------
:FULLY-SPECIFIED
:DEGREES
973
root -5.478978 35.269699 -10.362136 -3.439697 -6.043569 -5.653185
Spine 1.641775 2.867206 10.481000
Head 3.560883 3.862434 -8.560063
LeftShoulder -19.315740 14.413790 -17.688770
LeftArm 21.166381 1.227338 -73.745887
LeftForeArm 4.458816 0.000000 12.548493
LeftHand 2.080648 -0.000000 -6.008613
LeftHandThumb1 -26.253704 0.000000 33.147579
RightShoulder 1.927960 -2.254941 3.313456
RightArm 18.018333 -38.031251 57.610808
RightForeArm -16.926987 0.000000 73.515776
RightHand 3.102761 -0.000000 8.132770
RightHandThumb1 -24.326973 -0.000000 -32.862282
LeftUpLeg 12.617030 15.518795 7.602753
LeftLeg -8.356738 -0.000000 0.000000
LeftFoot -15.254337 26.818513 -8.448523
LeftToeBase 22.840055 -0.000000 -0.000000
RightUpLeg 9.254766 -4.281754 3.950074
RightLeg -4.509901 -0.000000 0.000000
RightFoot -3.633750 -27.193735 2.921851
RightToeBase 13.772287 -0.000000 -0.000000
974
root -5.475467 35.270751 -10.358314 -3.486353 -5.979914 -5.666326
Spine 1.673937 2.795861 10.519199
Head 3.606086 3.862736 -8.589460
LeftShoulder -19.322153 14.422555 -17.712296
LeftArm 21.152943 1.211994 -73.761919
LeftForeArm 4.453060 -0.000000 12.515826
LeftHand 2.043192 -0.000000 -6.027813
LeftHandThumb1 -26.253704 0.000000 33.147579
RightShoulder 1.950593 -2.197619 3.228598
RightArm 18.041717 -37.917530 57.711044
RightForeArm -16.982866 -0.000000 75.169432
RightHand 3.064917 0.000000 8.045309
RightHandThumb1 -24.326973 -0.000000 -32.862282
LeftUpLeg 12.655847 15.447039 7.613155
LeftLeg -8.360927 -0.000000 0.000000
LeftFoot -15.247312 26.836896 -8.434436
LeftToeBase 22.844602 -0.000000 -0.000000
RightUpLeg 9.318311 -4.354962 3.945481
RightLeg -4.523206 -0.000000 0.000000
RightFoot -3.623999 -27.173847 2.965621
RightToeBase 13.766319 -0.000000 -0.000000
975
root -5.478596 35.269138 -10.360582 -3.424564 -5.952118 -5.654318
Spine 1.565277 2.808408 10.470237
Head 3.695031 3.847619 -8.519884
LeftShoulder -19.333917 14.464150 -17.677730
LeftArm 21.138807 1.170517 -73.791311
LeftForeArm 4.515564 -0.000000 12.485034
LeftHand 2.057146 -0.000000 -6.060001
LeftHandThumb1 -26.253704 0.000000 33.147579
RightShoulder 1.949879 -2.170476 3.214863
RightArm 18.141679 -37.893774 57.702540
RightForeArm -16.752185 0.000000 76.708155
RightHand 3.066160 -0.000000 7.992892
RightHandThumb1 -24.326973 -0.000000 -32.862282
LeftUpLeg 12.577839 15.460962 7.589972
LeftLeg -8.354189 -0.000000 0.000000
LeftFoot -15.239407 26.812044 -8.403299
LeftToeBase 22.841275 -0.000000 -0.000000
RightUpLeg 9.250461 -4.355501 3.948049
RightLeg -4.517255 -0.000000 0.000000
RightFoot -3.629630 -27.217779 2.891401
RightToeBase 13.780565 -0.000000 -0.000000
976
root -5.478981 35.270157 -10.353370 -3.501944 -5.896695 -5.664267
Spine 1.626632 2.758173 10.481934
Head 3.742788 3.836409 -8.497659
LeftShoulder -19.329157 14.484374 -17.689876
LeftArm 21.143826 1.154270 -73.799842
LeftForeArm 4.549479 -0.000000 12.432325
LeftHand 2.121433 -0.000000 -5.968390
LeftHandThumb1 -26.253704 0.000000 33.147579
RightShoulder 1.978342 -2.109872 3.191887
RightArm 18.150302 -37.744865 57.777115
RightForeArm -16.582436 -0.000000 78.152108
RightHand 3.174518 -0.000000 7.964280
RightHandThumb1 -24.326973 -0.000000 -32.862282
LeftUpLeg 12.663860 15.423165 7.620520
LeftLeg -8.370807 -0.000000 0.000000
LeftFoot -15.224815 26.784101 -8.401551
LeftToeBase 22.834250 -0.000000 -0.000000
RightUpLeg 9.355498 -4.449235 3.945441
RightLeg -4.544198 -0.000000 0.000000
RightFoot -3.621426 -27.198750 2.929694
RightToeBase 13.761298 -0.000000 -0.000000
977
root -5.478130 35.270949 -10.349602 -3.549888 -5.858544 -5.683448
Spine 1.669804 2.735234 10.515053
Head 3.771670 3.803677 -8.502000
LeftShoulder -19.325101 14.475471 -17.701306
LeftArm 21.109318 1.113605 -73.817663
LeftForeArm 4.530936 -0.000000 12.424406
LeftHand 2.115266 0.000000 -5.896441
LeftHandThumb1 -26.253704 0.000000 33.147579
RightShoulder 1.973341 -2.080841 3.137534
RightArm 18.233120 -37.660612 57.826171
RightForeArm -16.238751 -0.000000 79.453984
RightHand 3.404792 -0.000000 7.886423
RightHandThumb1 -24.326973 -0.000000 -32.862282
LeftUpLeg 12.714810 15.390425 7.649986
LeftLeg -8.379327 -0.000000 0.000000
LeftFoot -15.222636 26.780576 -8.388575
LeftToeBase 22.846633 -0.000000 -0.000000
RightUpLeg 9.419092 -4.483027 3.956013
RightLeg -4.556417 -0.000000 0.000000
RightFoot -3.625220 -27.197892 3.011292
RightToeBase 13.741593 -0.000000 -0.000000
978
root -5.477364 35.271662 -10.346482 -3.605286 -5.825859 -5.668908
Spine 1.720342 2.728247 10.488038
Head 3.809149 3.751876 -8.460278
LeftShoulder -19.299350 14.485215 -17.706794
LeftArm 21.086216 1.030494 -73.828060
LeftForeArm 4.524186 -0.000000 12.438743
LeftHand 2.022115 -0.000000 -5.950275
LeftHandThumb1 -26.253704 0.000000 33.147579
RightShoulder 1.970578 -2.039367 3.109809
RightArm 18.302492 -37.582384 57.880867
RightForeArm -15.667109 -0.000000 80.668948
RightHand 3.455086 -0.000000 7.899116
RightHandThumb1 -24.326973 -0.000000 -32.862282
LeftUpLeg 12.768593 15.369608 7.648459
LeftLeg -8.381640 -0.000000 0.000000
LeftFoot -15.211593 26.755974 -8.412528
LeftToeBase 22.828079 -0.000000 -0.000000
RightUpLeg 9.488487 -4.503742 3.933869
RightLeg -4.571186 -0.000000 0.000000
RightFoot -3.619537 -27.195961 3.005461
RightToeBase 13.714591 -0.000000 -0.000000
979
root -5.478209 35.271150 -10.345976 -3.603940 -5.795319 -5.672977
Spine 1.697493 2.727807 10.477645
Head 3.863384 3.709712 -8.416137
LeftShoulder -19.307578 14.515598 -17.718083
LeftArm 21.086439 0.957289 -73.849486
LeftForeArm 4.568413 -0.000000 12.430780
LeftHand 1.964610 -0.000000 -5.917046
LeftHandThumb1 -26.253704 0.000000 33.147579
RightShoulder 1.970839 -2.011798 3.091776
RightArm 18.364452 -37.523657 57.923181
RightForeArm -15.151639 -0.000000 81.780722
RightHand 3.608287 0.000000 7.830588
RightHandThumb1 -24.326973 -0.000000 -32.862282
LeftUpLeg 12.757581 15.351383 7.651142
LeftLeg -8.376097 -0.000000 0.000000
LeftFoot -15.219462 26.752485 -8.401138
LeftToeBase 22.848470 -0.000000 -0.000000
RightUpLeg 9.497838 -4.492623 3.942523
RightLeg -4.586547 -0.000000 0.000000
RightFoot -3.633219 -27.238113 3.037115
RightToeBase 13.689387 -0.000000 -0.000000
980
root -5.478802 35.270813 -10.345653 -3.605092 -5.767429 -5.668799
Spine 1.680686 2.735688 10.459366
Head 3.913232 3.649682 -8.391272
LeftShoulder -19.302406 14.516119 -17.727100
LeftArm 21.058077 0.927031 -73.834256
LeftForeArm 4.556222 -0.000000 12.415802
LeftHand 1.987993 -0.000000 -5.893596
LeftHandThumb1 -26.253704 0.000000 33.147579
RightShoulder 1.971426 -1.998424 3.069172
RightArm 18.420619 -37.468937 58.009420
RightForeArm -14.750054 -0.000000 82.783624
RightHand 3.748779 -0.000000 7.703962
RightHandThumb1 -24.326973 -0.000000 -32.862282
LeftUpLeg 12.745608 15.312920 7.643183
LeftLeg -8.367434 -0.000000 0.000000
LeftFoot -15.221949 26.767184 -8.390031
LeftToeBase 22.875902 -0.000000 -0.000000
RightUpLeg 9.504483 -4.495315 3.942088
RightLeg -4.595856 -0.000000 0.000000
RightFoot -3.625614 -27.275599 3.016948
RightToeBase 13.713888 -0.000000 -0.000000
981
root -5.477920 35.270865 -10.344923 -3.612324 -5.742249 -5.658984
Spine 1.668902 2.740958 10.438118
Head 3.963896 3.602180 -8.353640
LeftShoulder -19.302660 14.514377 -17.753157
LeftArm 21.021302 0.875880 -73.817637
LeftForeArm 4.543557 -0.000000 12.419590
LeftHand 2.028994 -0.000000 -5.871767
LeftHandThumb1 -26.253704 0.000000 33.147579
RightShoulder 1.991252 -1.985938 3.063109
RightArm 18.441898 -37.375974 58.087017
RightForeArm -14.202344 -0.000000 83.751824
RightHand 3.823765 -0.000000 7.642428
RightHandThumb1 -24.326973 -0.000000 -32.862282
LeftUpLeg 12.744302 15.280527 7.628963
LeftLeg -8.363481 -0.000000 0.000000
LeftFoot -15.224248 26.773703 -8.406506
LeftToeBase 22.880795 -0.000000 -0.000000
RightUpLeg 9.513068 -4.535248 3.927981
RightLeg -4.595692 -0.000000 0.000000
RightFoot -3.627115 -27.263016 2.999909
RightToeBase 13.731241 -0.000000 -0.000000
982
root -5.481411 35.270060 -10.344836 -3.611546 -5.732061 -5.662998
Spine 1.652302 2.774633 10.420446
Head 4.015754 3.528422 -8.318623
LeftShoulder -19.301353 14.536255 -17.765801
LeftArm 21.015857 0.836758 -73.802225
LeftForeArm 4.509821 -0.000000 12.412640
LeftHand 2.057764 -0.000000 -5.891638
LeftHandThumb1 -26.253704 0.000000 33.147579
RightShoulder 1.997553 -2.011979 3.055135
RightArm 18.503982 -37.284651 58.151447
RightForeArm -13.653551 -0.000000 84.590683
RightHand 4.093882 -0.000000 7.669436
RightHandThumb1 -24.326973 -0.000000 -32.862282
LeftUpLeg 12.745228 15.313167 7.645465
LeftLeg -8.365144 -0.000000 0.000000
LeftFoot -15.216841 26.728242 -8.379948
LeftToeBase 22.861482 -0.000000 -0.000000
RightUpLeg 9.515461 -4.523867 3.941976
RightLeg -4.597802 -0.000000 0.000000
RightFoot -3.631032 -27.297261 2.977497
RightToeBase 13.726893 -0.000000 -0.000000
